# xmcd CD database file
#
# Track frame offsets:
#	150
#	36450
#	56175
#	78867
#	109010
#	155152
#	179985
#
# Disc length: 2897 seconds
#
# Revision: 1
# Processed by: cddbd v1.5.1PL0 Copyright (c) Steve Scherf et al.
# Submitted via: CDex 1.51
#
DISCID=630b4f07
DTITLE=Gene DiNovi - Gene DiNovi Precious Moment
DYEAR=1990
DGENRE=Jazz
TTITLE0=One For Johfu
TTITLE1=Smoke Gets In Your Eyes
TTITLE2=More Than You Know
TTITLE3=Marking Time
TTITLE4=Precious Moment
TTITLE5=Tea For Two
TTITLE6=Stella By Starlight
EXTD=YEAR: 1990
EXTT0=
EXTT1=
EXTT2=
EXTT3=
EXTT4=
EXTT5=
EXTT6=
PLAYORDER=
